<svg xmlns="http://www.w3.org/2000/svg" xmlns:xlink="http://www.w3.org/1999/xlink" width="500" zoomAndPan="magnify" viewBox="0 0 375 374.999991" height="500" preserveAspectRatio="xMidYMid meet" version="1.0"><defs><g/><clipPath id="1e5f9826c2"><path d="M 53.726562 53.726562 L 321.273438 53.726562 L 321.273438 321.273438 L 53.726562 321.273438 Z M 53.726562 53.726562 " clip-rule="nonzero"/></clipPath><clipPath id="b118030fb1"><path d="M 321.273438 187.5 C 321.273438 261.378906 261.378906 321.273438 187.5 321.273438 C 113.617188 321.273438 53.726562 261.378906 53.726562 187.5 C 53.726562 113.621094 113.617188 53.726562 187.5 53.726562 C 261.382812 53.726562 321.273438 113.621094 321.273438 187.5 Z M 321.273438 187.5 " clip-rule="nonzero"/></clipPath><clipPath id="b6031124f1"><path d="M 157 108 L 217 108 L 217 168 L 157 168 Z M 157 108 " clip-rule="nonzero"/></clipPath><clipPath id="ae0a42c37c"><path d="M 96.714844 209.992188 L 180.488281 97.507812 L 271.316406 165.15625 L 187.542969 277.636719 Z M 96.714844 209.992188 " clip-rule="nonzero"/></clipPath><clipPath id="060667a6ff"><path d="M 96.714844 209.992188 L 180.488281 97.507812 L 271.316406 165.15625 L 187.542969 277.636719 Z M 96.714844 209.992188 " clip-rule="nonzero"/></clipPath><clipPath id="3f8483612b"><path d="M 183 137 L 189 137 L 189 237 L 183 237 Z M 183 137 " clip-rule="nonzero"/></clipPath><clipPath id="65b9a61621"><path d="M 96.714844 209.992188 L 180.488281 97.507812 L 271.316406 165.15625 L 187.542969 277.636719 Z M 96.714844 209.992188 " clip-rule="nonzero"/></clipPath><clipPath id="212de55afc"><path d="M 96.714844 209.992188 L 180.488281 97.507812 L 271.316406 165.15625 L 187.542969 277.636719 Z M 96.714844 209.992188 " clip-rule="nonzero"/></clipPath><clipPath id="8a6e4ff6f6"><path d="M 180 224 L 195 224 L 195 276 L 180 276 Z M 180 224 " clip-rule="nonzero"/></clipPath><clipPath id="6fd5d136ca"><path d="M 96.714844 209.992188 L 180.488281 97.507812 L 271.316406 165.15625 L 187.542969 277.636719 Z M 96.714844 209.992188 " clip-rule="nonzero"/></clipPath><clipPath id="060d272410"><path d="M 96.714844 209.992188 L 180.488281 97.507812 L 271.316406 165.15625 L 187.542969 277.636719 Z M 96.714844 209.992188 " clip-rule="nonzero"/></clipPath><clipPath id="dcce23c39f"><path d="M 184 137 L 188 137 L 188 166 L 184 166 Z M 184 137 " clip-rule="nonzero"/></clipPath><clipPath id="57a274f9a3"><path d="M 96.714844 209.992188 L 180.488281 97.507812 L 271.316406 165.15625 L 187.542969 277.636719 Z M 96.714844 209.992188 " clip-rule="nonzero"/></clipPath><clipPath id="b30a93b7eb"><path d="M 96.714844 209.992188 L 180.488281 97.507812 L 271.316406 165.15625 L 187.542969 277.636719 Z M 96.714844 209.992188 " clip-rule="nonzero"/></clipPath></defs><g clip-path="url(#1e5f9826c2)"><g clip-path="url(#b118030fb1)"><path fill="#180344" d="M 53.726562 53.726562 L 321.273438 53.726562 L 321.273438 321.273438 L 53.726562 321.273438 Z M 53.726562 53.726562 " fill-opacity="1" fill-rule="nonzero"/></g></g><g clip-path="url(#b6031124f1)"><g clip-path="url(#ae0a42c37c)"><g clip-path="url(#060667a6ff)"><path fill="#edcb03" d="M 162.734375 121.367188 C 183.816406 137.066406 183.386719 139.175781 157.515625 147.359375 C 183.414062 139.171875 184.78125 140.796875 174.402344 167.320312 C 184.78125 140.796875 186.910156 140.707031 200.683594 166.21875 C 186.898438 140.722656 188.191406 138.988281 216.578125 144.875 C 188.203125 138.972656 187.675781 136.90625 210.105469 119.378906 C 187.664062 136.921875 185.730469 136.0625 186.144531 108.917969 C 185.714844 136.050781 183.816406 137.066406 162.734375 121.367188 Z M 162.734375 121.367188 " fill-opacity="1" fill-rule="nonzero"/></g></g></g><g clip-path="url(#3f8483612b)"><g clip-path="url(#65b9a61621)"><g clip-path="url(#212de55afc)"><path fill="#544d49" d="M 186.746094 137.960938 L 187.25 138.75 L 187.503906 161.898438 L 188.351562 235.457031 L 183.382812 236.128906 L 184.964844 149.386719 L 184.976562 149.371094 L 185.15625 139.765625 L 185.640625 138.597656 Z M 186.746094 137.960938 " fill-opacity="1" fill-rule="nonzero"/></g></g></g><g clip-path="url(#8a6e4ff6f6)"><g clip-path="url(#6fd5d136ca)"><g clip-path="url(#060d272410)"><path fill="#565656" d="M 188.140625 225.921875 C 189.105469 227.371094 190.0625 228.789062 191.027344 230.234375 L 189.296875 238.007812 L 190.226562 243.609375 L 187.492188 254.324219 L 190.390625 261.003906 L 194.457031 263.304688 L 194.390625 264.371094 L 194.035156 268.796875 L 184.5 275.371094 L 180.050781 268 L 180.226562 260.332031 L 181.375 251.640625 L 180.804688 244.027344 L 180.210938 234.449219 L 182.195312 228.492188 L 185.761719 224.710938 Z M 188.140625 225.921875 " fill-opacity="1" fill-rule="nonzero"/><path fill="#ffffff" d="M 182.804688 229.335938 L 181.683594 232.507812 C 181.683594 232.507812 187.808594 231.847656 187.910156 238.726562 C 185.738281 234.824219 181.199219 234.722656 181.199219 234.722656 L 181.460938 239 L 185.488281 241.390625 L 181.898438 240.925781 L 182.207031 244.460938 C 182.207031 244.460938 186.5625 245.132812 187.503906 248.894531 C 186.859375 248 183.976562 247.628906 182.6875 248.511719 C 181.394531 249.398438 182.292969 249.628906 182.292969 249.628906 C 182.292969 249.628906 183.25 248.832031 184.582031 250.992188 C 182.582031 250.546875 182.40625 252.214844 182.40625 252.214844 L 181.246094 261.214844 C 181.246094 261.214844 183.582031 260.425781 186.46875 262.648438 C 183.398438 262.234375 181.152344 266.003906 181.152344 266.003906 L 184.425781 267.445312 L 182.136719 267.585938 L 185.460938 273.003906 L 192.757812 268.0625 L 194.375 264.359375 L 194.035156 268.796875 L 184.5 275.371094 L 180.050781 268 L 180.226562 260.332031 L 181.375 251.640625 L 180.804688 244.027344 L 180.210938 234.449219 L 182.195312 228.492188 L 185.761719 224.710938 Z M 182.804688 229.335938 " fill-opacity="1" fill-rule="nonzero"/></g></g></g><g clip-path="url(#dcce23c39f)"><g clip-path="url(#57a274f9a3)"><g clip-path="url(#b30a93b7eb)"><path fill="#ffffff" d="M 186.746094 137.960938 L 187.25 138.75 L 187.503906 161.898438 L 186.839844 165.921875 L 186.328125 156.527344 L 185.644531 158.980469 L 184.964844 149.386719 L 184.976562 149.371094 L 185.15625 139.765625 L 185.640625 138.597656 Z M 186.746094 137.960938 " fill-opacity="1" fill-rule="nonzero"/></g></g></g><g fill="#ffffff" fill-opacity="1"><g transform="translate(75.286786, 189.853786)"><g><path d="M 1.820312 0 L 5.246094 0 L 5.246094 -9.296875 L 11.941406 0 L 14.867188 0 L 14.867188 -15.171875 L 11.445312 -15.171875 L 11.445312 -5.9375 L 4.746094 -15.171875 L 1.820312 -15.171875 Z M 1.820312 0 "/></g></g></g><g fill="#ffffff" fill-opacity="1"><g transform="translate(101.399188, 189.853786)"><g><path d="M 1.820312 0 L 12.03125 0 L 12.03125 -2.925781 L 5.246094 -2.925781 L 5.246094 -6.242188 L 11.207031 -6.242188 L 11.207031 -9.125 L 5.246094 -9.125 L 5.246094 -12.269531 L 11.792969 -12.269531 L 11.792969 -15.171875 L 1.820312 -15.171875 Z M 1.820312 0 "/></g></g></g><g fill="#ffffff" fill-opacity="1"><g transform="translate(123.958197, 189.853786)"><g><path d="M 5.460938 0 L 8.910156 0 L 8.910156 -11.941406 L 13.71875 -11.941406 L 13.71875 -15.171875 L 0.648438 -15.171875 L 0.648438 -11.941406 L 5.460938 -11.941406 Z M 5.460938 0 "/></g></g></g><g fill="#ffffff" fill-opacity="1"><g transform="translate(147.752229, 189.853786)"><g><path d="M 5.09375 0 L 8.496094 0 L 11.941406 -9.820312 L 15.390625 0 L 18.769531 0 L 23.667969 -15.171875 L 20.027344 -15.171875 L 18.574219 -10.554688 L 16.949219 -5.503906 L 15.195312 -10.554688 L 13.570312 -15.171875 L 10.296875 -15.171875 L 8.671875 -10.554688 L 6.9375 -5.570312 L 5.332031 -10.554688 L 3.878906 -15.171875 L 0.214844 -15.171875 Z M 5.09375 0 "/></g></g></g><g fill="#ffffff" fill-opacity="1"><g transform="translate(181.058076, 189.853786)"><g/></g></g><g fill="#ffffff" fill-opacity="1"><g transform="translate(195.578623, 189.853786)"><g><path d="M 5.460938 0 L 8.910156 0 L 8.910156 -11.941406 L 13.71875 -11.941406 L 13.71875 -15.171875 L 0.648438 -15.171875 L 0.648438 -11.941406 L 5.460938 -11.941406 Z M 5.460938 0 "/></g></g></g><g fill="#ffffff" fill-opacity="1"><g transform="translate(219.372662, 189.853786)"><g><path d="M 8.777344 0.304688 C 12.765625 0.304688 15.867188 -2.125 16.625 -5.808594 L 13.070312 -5.808594 C 12.441406 -4.074219 10.835938 -2.96875 8.84375 -2.96875 C 6.265625 -2.96875 4.445312 -4.855469 4.445312 -7.585938 C 4.445312 -10.316406 6.285156 -12.203125 8.863281 -12.203125 C 10.792969 -12.203125 12.375 -11.164062 12.960938 -9.492188 L 16.515625 -9.492188 C 15.648438 -13.136719 12.613281 -15.476562 8.757812 -15.476562 C 4.160156 -15.476562 0.933594 -12.226562 0.933594 -7.585938 C 0.933594 -2.949219 4.160156 0.304688 8.777344 0.304688 Z M 8.777344 0.304688 "/></g></g></g><g fill="#ffffff" fill-opacity="1"><g transform="translate(246.286742, 189.853786)"><g><path d="M 11.207031 0 L 14.652344 0 L 14.652344 -15.171875 L 11.207031 -15.171875 L 11.207031 -9.34375 L 5.265625 -9.34375 L 5.265625 -15.171875 L 1.820312 -15.171875 L 1.820312 0 L 5.265625 0 L 5.265625 -6.113281 L 11.207031 -6.113281 Z M 11.207031 0 "/></g></g></g><g fill="#ffffff" fill-opacity="1"><g transform="translate(272.182481, 189.853786)"><g><path d="M 1.820312 0 L 12.03125 0 L 12.03125 -2.925781 L 5.246094 -2.925781 L 5.246094 -6.242188 L 11.207031 -6.242188 L 11.207031 -9.125 L 5.246094 -9.125 L 5.246094 -12.269531 L 11.792969 -12.269531 L 11.792969 -15.171875 L 1.820312 -15.171875 Z M 1.820312 0 "/></g></g></g><g fill="#ffffff" fill-opacity="1"><g transform="translate(294.741496, 189.853786)"><g><path d="M 1.820312 0 L 5.265625 0 L 5.265625 -4.726562 L 7.542969 -4.726562 L 10.253906 0 L 14.242188 0 L 11.097656 -5.265625 C 12.917969 -6.070312 13.980469 -7.714844 13.980469 -9.949219 C 13.980469 -13.179688 11.769531 -15.171875 8.300781 -15.171875 L 1.820312 -15.171875 Z M 5.222656 -7.628906 L 5.222656 -12.226562 L 7.847656 -12.226562 C 9.535156 -12.226562 10.492188 -11.402344 10.492188 -9.925781 C 10.492188 -8.453125 9.535156 -7.628906 7.847656 -7.628906 Z M 5.222656 -7.628906 "/></g></g></g></svg>